<svg width="30" height="30" viewBox="0 0 30 30" fill="none" xmlns="http://www.w3.org/2000/svg">
<circle cx="23.8637" cy="6.13636" r="6.13636" fill="#FF0000"/>
<path fill-rule="evenodd" clip-rule="evenodd" d="M20.2791 9.71255C20.4328 9.86167 20.4913 10.0815 20.4315 10.2855L14.7726 29.5811C14.7055 29.81 14.5028 29.9751 14.2615 29.9975C14.0203 30.0199 13.7898 29.8949 13.6803 29.6824L9.16781 20.9246L0.316345 16.375C0.10415 16.266 -0.0198431 16.0415 0.00260841 15.8072C0.02506 15.5729 0.189494 15.3751 0.418673 15.3069L19.6943 9.57041C19.901 9.50889 20.1254 9.56342 20.2791 9.71255ZM10.3244 20.6044L14.0549 27.8446L18.6463 12.1887L10.3244 20.6044ZM17.8518 11.3296L2.14112 16.0052L9.49199 19.7834L17.8518 11.3296Z" fill="#333333"/>
<path d="M24.6283 7.36365H23.723V4.88513L23.7318 4.47791L23.7465 4.03259C23.5961 4.18298 23.4916 4.28162 23.433 4.32849L22.9408 4.724L22.5043 4.17908L23.8842 3.08044H24.6283V7.36365Z" fill="white"/>
</svg>
